<mxfile host="app.diagrams.net" modified="2024-05-22T09:03:59.416Z" agent="Mozilla/5.0 (Macintosh; Intel Mac OS X 10_15_7) AppleWebKit/537.36 (KHTML, like Gecko) Chrome/124.0.0.0 Safari/537.36" version="24.4.3" etag="OjuKAO-_yHtoo7xJAkA5" type="github">
  <diagram name="第 1 页" id="Ken1oYcSPVvt8bBRgfSd">
    <mxGraphModel>
      <root>
        <mxCell id="0" />
        <mxCell id="1" parent="0" />
      </root>
    </mxGraphModel>
  </diagram>
</mxfile>
